<?xml version="1.0" encoding="utf-8"?>
<!-- Generator: Adobe Illustrator 24.2.3, SVG Export Plug-In . SVG Version: 6.00 Build 0)  -->
<svg version="1.1" id="Capa_1" xmlns="http://www.w3.org/2000/svg" xmlns:xlink="http://www.w3.org/1999/xlink" x="0px" y="0px"
	 viewBox="0 0 1200 630" style="enable-background:new 0 0 1200 630;" xml:space="preserve">
<style type="text/css">
	.st0{fill:#0097B2;}
	.st1{fill:none;stroke:#FFFFFF;stroke-width:30;stroke-miterlimit:10;}
	.st2{fill:#FF66C4;}
	.st3{fill:#A578DA;}
	.st4{fill:#FCD031;}
	.st5{fill:#FFDA64;}
	.st6{fill:url(#SVGID_1_);}
	.st7{fill:#2252FF;}
	.st8{fill:#F2112D;}
	.st9{fill:#FF4901;}
	.st10{fill:#7416EF;}
	.st11{fill:#FFFFFF;}
	.st12{fill:url(#SVGID_2_);}
	.st13{fill:none;stroke:#FFFFFF;stroke-width:35;stroke-miterlimit:10;}
</style>
<rect x="0" class="st0" width="1200" height="630"/>
<g>
	<g id="invita">
		<g>
			<path class="st1" d="M248.62,331.49c2.01,1.32,5.28,1.98,9.8,1.98c4.77,0,8.13-0.66,10.08-1.98c1.95-1.32,3.17-3.08,3.67-5.28
				c0.5-2.2,0.75-4.49,0.75-6.88V216.28c0-2.64-0.22-5.02-0.66-7.16c-0.44-2.13-1.63-3.89-3.58-5.28
				c-1.95-1.38-5.31-2.07-10.08-2.07c-4.65,0-7.98,0.69-9.99,2.07c-2.01,1.38-3.24,3.14-3.67,5.28c-0.44,2.14-0.66,4.46-0.66,6.97
				v103.06c0,2.39,0.22,4.71,0.66,6.97C245.39,328.38,246.61,330.17,248.62,331.49z"/>
			<path class="st1" d="M378.91,326.21c0.44-2.2,0.66-4.49,0.66-6.88v-34.29c0-6.66-0.85-12.78-2.54-18.37
				c-1.7-5.59-4.18-10.46-7.44-14.6c-3.27-4.15-7.25-7.32-11.96-9.52c-4.71-2.2-10.08-3.3-16.11-3.3c-2.89,0-5.81,0.44-8.76,1.32
				c-2.95,0.88-5.72,2.1-8.29,3.67c-2.58,1.57-4.71,3.33-6.41,5.28c-0.9,1.04-1.59,2.06-2.08,3.08l0.29-0.92
				c-0.25-0.5-0.38-1.41-0.38-2.73c0-1.32-0.28-2.73-0.85-4.24c-0.57-1.51-1.79-2.79-3.67-3.86c-1.88-1.07-4.84-1.6-8.86-1.6
				c-4.65,0-7.95,0.63-9.89,1.88c-1.95,1.26-3.17,2.92-3.67,4.99c-0.5,2.07-0.75,4.3-0.75,6.69v66.32c0,2.39,0.22,4.68,0.66,6.88
				c0.44,2.2,1.63,3.96,3.58,5.28c1.95,1.32,5.24,1.98,9.89,1.98c4.65,0,7.94-0.63,9.89-1.88c1.95-1.25,3.14-2.98,3.58-5.18
				c0.44-2.2,0.66-4.49,0.66-6.88v-34.29c0-3.64,0.72-6.78,2.17-9.42c1.44-2.64,3.49-4.71,6.12-6.22c2.64-1.51,5.78-2.26,9.42-2.26
				c3.64,0,6.72,0.72,9.23,2.17c2.51,1.45,4.4,3.49,5.65,6.12c1.25,2.64,1.88,5.84,1.88,9.61v34.1c0,2.39,0.25,4.68,0.75,6.88
				c0.5,2.2,1.72,3.96,3.67,5.28c1.95,1.32,5.31,1.98,10.08,1.98c4.64,0,7.94-0.63,9.89-1.88
				C377.27,330.14,378.47,328.41,378.91,326.21z"/>
			<path class="st1" d="M426.67,327.25c1.25,2.39,2.95,4.14,5.09,5.28c2.13,1.13,4.71,1.7,7.73,1.7c3.26,0,5.96-0.57,8.1-1.7
				c2.13-1.13,3.77-2.89,4.9-5.28l33.73-67.26c2.13-4.14,2.92-7.82,2.36-11.02c-0.57-3.2-3.42-6-8.57-8.38
				c-5.02-2.51-8.92-3.33-11.68-2.45c-2.76,0.88-5.34,4.02-7.72,9.42l-21.1,48.42l-21.1-49.18c-2.26-5.15-4.8-8.07-7.63-8.76
				c-2.83-0.69-6.63,0.09-11.4,2.36c-4.78,2.39-7.63,5.06-8.57,8.01c-0.94,2.95-0.28,6.69,1.98,11.21L426.67,327.25z"/>
			<path class="st1" d="M529.07,326.4c0.44-2.2,0.66-4.49,0.66-6.88v-65.57c0-2.64-0.22-5.02-0.66-7.16
				c-0.44-2.13-1.63-3.89-3.58-5.28c-1.95-1.38-5.18-2.07-9.7-2.07c-4.65,0-7.98,0.66-9.99,1.98c-2.01,1.32-3.24,3.05-3.67,5.18
				c-0.44,2.14-0.66,4.46-0.66,6.97v65.76c0,2.39,0.22,4.68,0.66,6.88c0.44,2.2,1.63,3.96,3.58,5.28c1.95,1.32,5.24,1.98,9.89,1.98
				c4.64,0,7.94-0.63,9.89-1.88C527.43,330.33,528.63,328.6,529.07,326.4z"/>
			<path class="st1" d="M505.42,223.62c2.01,1.38,5.4,2.07,10.17,2.07c4.77,0,8.16-0.66,10.17-1.98c2.01-1.32,3.23-3.11,3.67-5.37
				c0.44-2.26,0.66-4.64,0.66-7.16c0-2.51-0.22-4.9-0.66-7.16c-0.44-2.26-1.67-4.08-3.67-5.46c-2.01-1.38-5.34-2.07-9.99-2.07
				c-4.78,0-8.17,0.66-10.17,1.98c-2.01,1.32-3.27,3.08-3.77,5.28c-0.5,2.2-0.75,4.62-0.75,7.25c0,2.51,0.22,4.9,0.66,7.16
				C502.19,220.42,503.41,222.24,505.42,223.62z"/>
			<path class="st1" d="M578.05,331.4c4.58,1.38,10.08,2.07,16.49,2.07c2.38,0,4.68-0.19,6.88-0.57c2.2-0.38,3.99-1.57,5.37-3.58
				c1.38-2.01,2.07-5.28,2.07-9.8c0-4.14-0.6-7.09-1.79-8.85c-1.2-1.76-2.86-2.89-4.99-3.39c-2.14-0.5-4.59-0.75-7.35-0.75
				c-1.63,0-3.01-0.12-4.15-0.38c-1.13-0.25-2.01-0.69-2.64-1.32c-0.63-0.63-1.1-1.6-1.41-2.92c-0.31-1.32-0.47-2.98-0.47-4.99
				v-28.74l12.62,0.29c2.51,0,4.83-0.28,6.97-0.85c2.13-0.57,3.86-1.85,5.18-3.86c1.32-2.01,1.98-5.15,1.98-9.42
				c0-4.65-0.69-7.97-2.07-9.99c-1.38-2.01-3.14-3.23-5.28-3.67c-2.14-0.44-4.4-0.66-6.78-0.66l-12.62,0.37v-18.26
				c0-2.51-0.22-4.83-0.66-6.97c-0.44-2.13-1.67-3.89-3.67-5.28c-2.01-1.38-5.28-2.07-9.8-2.07c-4.52,0-7.79,0.66-9.8,1.98
				c-2.01,1.32-3.24,2.99-3.67,4.99c-0.44,2.01-0.66,4.27-0.66,6.78v19.22h-5.84c-3.52,0-6.16,1.1-7.91,3.3
				c-1.76,2.2-2.64,5.56-2.64,10.08c0,4.9,0.72,8.38,2.17,10.46c1.44,2.07,3.99,3.17,7.63,3.3h6.59v30.15
				c0,6.16,0.72,11.46,2.17,15.92c1.44,4.46,3.67,8.13,6.69,11.02C569.67,327.88,573.47,330.01,578.05,331.4z"/>
			<path class="st1" d="M663.5,333.28c5.02,0,9.23-0.72,12.62-2.17c3.39-1.44,6.15-3.08,8.29-4.9c2.13-1.82,3.58-3.36,4.33-4.62
				l-1.88,3.2c0,2.39,1.1,4.4,3.3,6.03c2.2,1.63,5.62,2.45,10.27,2.45c4.64,0,7.94-0.66,9.89-1.98c1.95-1.32,3.14-3.11,3.58-5.37
				c0.44-2.26,0.66-4.58,0.66-6.97v-65c0-2.51-0.22-4.9-0.66-7.16c-0.44-2.26-1.63-4.08-3.58-5.46c-1.95-1.38-5.18-2.07-9.7-2.07
				c-4.78,0-8.26,0.79-10.46,2.36c-2.2,1.57-3.24,3.86-3.11,6.88l1.51,2.64c-1.13-1.63-2.8-3.33-4.99-5.09
				c-2.2-1.76-4.93-3.3-8.2-4.62c-3.27-1.32-7.22-1.98-11.87-1.98c-5.78,0-11.24,1.26-16.39,3.77c-5.15,2.51-9.77,5.93-13.85,10.27
				c-4.08,4.33-7.29,9.3-9.61,14.88c-2.33,5.59-3.49,11.46-3.49,17.62c0,6.28,1.16,12.25,3.49,17.9c2.32,5.65,5.49,10.71,9.51,15.17
				c4.02,4.46,8.63,7.95,13.85,10.46C652.22,332.02,657.72,333.28,663.5,333.28z M650.78,276.76c1.7-2.89,3.96-5.21,6.78-6.97
				c2.83-1.76,6.06-2.64,9.7-2.64c3.26,0,6.28,0.85,9.04,2.54c2.76,1.7,4.96,3.96,6.59,6.78c1.63,2.83,2.45,6.06,2.45,9.7
				c0,3.52-0.79,6.72-2.36,9.61c-1.57,2.89-3.71,5.18-6.41,6.88c-2.7,1.7-5.68,2.54-8.95,2.54c-3.64,0-6.94-0.85-9.89-2.54
				c-2.95-1.7-5.28-3.96-6.97-6.78c-1.7-2.83-2.54-5.94-2.54-9.33C648.23,282.91,649.08,279.65,650.78,276.76z"/>
		</g>
		<g>
			<path class="st2" d="M248.62,331.49c2.01,1.32,5.28,1.98,9.8,1.98c4.77,0,8.13-0.66,10.08-1.98c1.95-1.32,3.17-3.08,3.67-5.28
				c0.5-2.2,0.75-4.49,0.75-6.88V216.28c0-2.64-0.22-5.02-0.66-7.16c-0.44-2.13-1.63-3.89-3.58-5.28
				c-1.95-1.38-5.31-2.07-10.08-2.07c-4.65,0-7.98,0.69-9.99,2.07c-2.01,1.38-3.24,3.14-3.67,5.28c-0.44,2.14-0.66,4.46-0.66,6.97
				v103.06c0,2.39,0.22,4.71,0.66,6.97C245.39,328.38,246.61,330.17,248.62,331.49z"/>
			<path class="st2" d="M378.91,326.21c0.44-2.2,0.66-4.49,0.66-6.88v-34.29c0-6.66-0.85-12.78-2.54-18.37
				c-1.7-5.59-4.18-10.46-7.44-14.6c-3.27-4.15-7.25-7.32-11.96-9.52c-4.71-2.2-10.08-3.3-16.11-3.3c-2.89,0-5.81,0.44-8.76,1.32
				c-2.95,0.88-5.72,2.1-8.29,3.67c-2.58,1.57-4.71,3.33-6.41,5.28c-0.9,1.04-1.59,2.06-2.08,3.08l0.29-0.92
				c-0.25-0.5-0.38-1.41-0.38-2.73c0-1.32-0.28-2.73-0.85-4.24c-0.57-1.51-1.79-2.79-3.67-3.86c-1.88-1.07-4.84-1.6-8.86-1.6
				c-4.65,0-7.95,0.63-9.89,1.88c-1.95,1.26-3.17,2.92-3.67,4.99c-0.5,2.07-0.75,4.3-0.75,6.69v66.32c0,2.39,0.22,4.68,0.66,6.88
				c0.44,2.2,1.63,3.96,3.58,5.28c1.95,1.32,5.24,1.98,9.89,1.98c4.65,0,7.94-0.63,9.89-1.88c1.95-1.25,3.14-2.98,3.58-5.18
				c0.44-2.2,0.66-4.49,0.66-6.88v-34.29c0-3.64,0.72-6.78,2.17-9.42c1.44-2.64,3.49-4.71,6.12-6.22c2.64-1.51,5.78-2.26,9.42-2.26
				c3.64,0,6.72,0.72,9.23,2.17c2.51,1.45,4.4,3.49,5.65,6.12c1.25,2.64,1.88,5.84,1.88,9.61v34.1c0,2.39,0.25,4.68,0.75,6.88
				c0.5,2.2,1.72,3.96,3.67,5.28c1.95,1.32,5.31,1.98,10.08,1.98c4.64,0,7.94-0.63,9.89-1.88
				C377.27,330.14,378.47,328.41,378.91,326.21z"/>
			<path class="st2" d="M426.67,327.25c1.25,2.39,2.95,4.14,5.09,5.28c2.13,1.13,4.71,1.7,7.73,1.7c3.26,0,5.96-0.57,8.1-1.7
				c2.13-1.13,3.77-2.89,4.9-5.28l33.73-67.26c2.13-4.14,2.92-7.82,2.36-11.02c-0.57-3.2-3.42-6-8.57-8.38
				c-5.02-2.51-8.92-3.33-11.68-2.45c-2.76,0.88-5.34,4.02-7.72,9.42l-21.1,48.42l-21.1-49.18c-2.26-5.15-4.8-8.07-7.63-8.76
				c-2.83-0.69-6.63,0.09-11.4,2.36c-4.78,2.39-7.63,5.06-8.57,8.01c-0.94,2.95-0.28,6.69,1.98,11.21L426.67,327.25z"/>
			<path class="st2" d="M529.07,326.4c0.44-2.2,0.66-4.49,0.66-6.88v-65.57c0-2.64-0.22-5.02-0.66-7.16
				c-0.44-2.13-1.63-3.89-3.58-5.28c-1.95-1.38-5.18-2.07-9.7-2.07c-4.65,0-7.98,0.66-9.99,1.98c-2.01,1.32-3.24,3.05-3.67,5.18
				c-0.44,2.14-0.66,4.46-0.66,6.97v65.76c0,2.39,0.22,4.68,0.66,6.88c0.44,2.2,1.63,3.96,3.58,5.28c1.95,1.32,5.24,1.98,9.89,1.98
				c4.64,0,7.94-0.63,9.89-1.88C527.43,330.33,528.63,328.6,529.07,326.4z"/>
			<path class="st2" d="M505.42,223.62c2.01,1.38,5.4,2.07,10.17,2.07c4.77,0,8.16-0.66,10.17-1.98c2.01-1.32,3.23-3.11,3.67-5.37
				c0.44-2.26,0.66-4.64,0.66-7.16c0-2.51-0.22-4.9-0.66-7.16c-0.44-2.26-1.67-4.08-3.67-5.46c-2.01-1.38-5.34-2.07-9.99-2.07
				c-4.78,0-8.17,0.66-10.17,1.98c-2.01,1.32-3.27,3.08-3.77,5.28c-0.5,2.2-0.75,4.62-0.75,7.25c0,2.51,0.22,4.9,0.66,7.16
				C502.19,220.42,503.41,222.24,505.42,223.62z"/>
			<path class="st2" d="M578.05,331.4c4.58,1.38,10.08,2.07,16.49,2.07c2.38,0,4.68-0.19,6.88-0.57c2.2-0.38,3.99-1.57,5.37-3.58
				c1.38-2.01,2.07-5.28,2.07-9.8c0-4.14-0.6-7.09-1.79-8.85c-1.2-1.76-2.86-2.89-4.99-3.39c-2.14-0.5-4.59-0.75-7.35-0.75
				c-1.63,0-3.01-0.12-4.15-0.38c-1.13-0.25-2.01-0.69-2.64-1.32c-0.63-0.63-1.1-1.6-1.41-2.92c-0.31-1.32-0.47-2.98-0.47-4.99
				v-28.74l12.62,0.29c2.51,0,4.83-0.28,6.97-0.85c2.13-0.57,3.86-1.85,5.18-3.86c1.32-2.01,1.98-5.15,1.98-9.42
				c0-4.65-0.69-7.97-2.07-9.99c-1.38-2.01-3.14-3.23-5.28-3.67c-2.14-0.44-4.4-0.66-6.78-0.66l-12.62,0.37v-18.26
				c0-2.51-0.22-4.83-0.66-6.97c-0.44-2.13-1.67-3.89-3.67-5.28c-2.01-1.38-5.28-2.07-9.8-2.07c-4.52,0-7.79,0.66-9.8,1.98
				c-2.01,1.32-3.24,2.99-3.67,4.99c-0.44,2.01-0.66,4.27-0.66,6.78v19.22h-5.84c-3.52,0-6.16,1.1-7.91,3.3
				c-1.76,2.2-2.64,5.56-2.64,10.08c0,4.9,0.72,8.38,2.17,10.46c1.44,2.07,3.99,3.17,7.63,3.3h6.59v30.15
				c0,6.16,0.72,11.46,2.17,15.92c1.44,4.46,3.67,8.13,6.69,11.02C569.67,327.88,573.47,330.01,578.05,331.4z"/>
			<path class="st2" d="M663.5,333.28c5.02,0,9.23-0.72,12.62-2.17c3.39-1.44,6.15-3.08,8.29-4.9c2.13-1.82,3.58-3.36,4.33-4.62
				l-1.88,3.2c0,2.39,1.1,4.4,3.3,6.03c2.2,1.63,5.62,2.45,10.27,2.45c4.64,0,7.94-0.66,9.89-1.98c1.95-1.32,3.14-3.11,3.58-5.37
				c0.44-2.26,0.66-4.58,0.66-6.97v-65c0-2.51-0.22-4.9-0.66-7.16c-0.44-2.26-1.63-4.08-3.58-5.46c-1.95-1.38-5.18-2.07-9.7-2.07
				c-4.78,0-8.26,0.79-10.46,2.36c-2.2,1.57-3.24,3.86-3.11,6.88l1.51,2.64c-1.13-1.63-2.8-3.33-4.99-5.09
				c-2.2-1.76-4.93-3.3-8.2-4.62c-3.27-1.32-7.22-1.98-11.87-1.98c-5.78,0-11.24,1.26-16.39,3.77c-5.15,2.51-9.77,5.93-13.85,10.27
				c-4.08,4.33-7.29,9.3-9.61,14.88c-2.33,5.59-3.49,11.46-3.49,17.62c0,6.28,1.16,12.25,3.49,17.9c2.32,5.65,5.49,10.71,9.51,15.17
				c4.02,4.46,8.63,7.95,13.85,10.46C652.22,332.02,657.72,333.28,663.5,333.28z M650.78,276.76c1.7-2.89,3.96-5.21,6.78-6.97
				c2.83-1.76,6.06-2.64,9.7-2.64c3.26,0,6.28,0.85,9.04,2.54c2.76,1.7,4.96,3.96,6.59,6.78c1.63,2.83,2.45,6.06,2.45,9.7
				c0,3.52-0.79,6.72-2.36,9.61c-1.57,2.89-3.71,5.18-6.41,6.88c-2.7,1.7-5.68,2.54-8.95,2.54c-3.64,0-6.94-0.85-9.89-2.54
				c-2.95-1.7-5.28-3.96-6.97-6.78c-1.7-2.83-2.54-5.94-2.54-9.33C648.23,282.91,649.08,279.65,650.78,276.76z"/>
		</g>
		<g>
			<path class="st3" d="M248.62,331.49c2.01,1.32,5.28,1.98,9.8,1.98c4.77,0,8.13-0.66,10.08-1.98c1.95-1.32,3.17-3.08,3.67-5.28
				c0.5-2.2,0.75-4.49,0.75-6.88V216.28c0-2.64-0.22-5.02-0.66-7.16c-0.44-2.13-1.63-3.89-3.58-5.28
				c-1.95-1.38-5.31-2.07-10.08-2.07c-4.65,0-7.98,0.69-9.99,2.07c-2.01,1.38-3.24,3.14-3.67,5.28c-0.44,2.14-0.66,4.46-0.66,6.97
				v103.06c0,2.39,0.22,4.71,0.66,6.97C245.39,328.38,246.61,330.17,248.62,331.49z"/>
			<path class="st3" d="M378.91,326.21c0.44-2.2,0.66-4.49,0.66-6.88v-34.29c0-6.66-0.85-12.78-2.54-18.37
				c-1.7-5.59-4.18-10.46-7.44-14.6c-3.27-4.15-7.25-7.32-11.96-9.52c-4.71-2.2-10.08-3.3-16.11-3.3c-2.89,0-5.81,0.44-8.76,1.32
				c-2.95,0.88-5.72,2.1-8.29,3.67c-2.58,1.57-4.71,3.33-6.41,5.28c-0.9,1.04-1.59,2.06-2.08,3.08l0.29-0.92
				c-0.25-0.5-0.38-1.41-0.38-2.73c0-1.32-0.28-2.73-0.85-4.24c-0.57-1.51-1.79-2.79-3.67-3.86c-1.88-1.07-4.84-1.6-8.86-1.6
				c-4.65,0-7.95,0.63-9.89,1.88c-1.95,1.26-3.17,2.92-3.67,4.99c-0.5,2.07-0.75,4.3-0.75,6.69v66.32c0,2.39,0.22,4.68,0.66,6.88
				c0.44,2.2,1.63,3.96,3.58,5.28c1.95,1.32,5.24,1.98,9.89,1.98c4.65,0,7.94-0.63,9.89-1.88c1.95-1.25,3.14-2.98,3.58-5.18
				c0.44-2.2,0.66-4.49,0.66-6.88v-34.29c0-3.64,0.72-6.78,2.17-9.42c1.44-2.64,3.49-4.71,6.12-6.22c2.64-1.51,5.78-2.26,9.42-2.26
				c3.64,0,6.72,0.72,9.23,2.17c2.51,1.45,4.4,3.49,5.65,6.12c1.25,2.64,1.88,5.84,1.88,9.61v34.1c0,2.39,0.25,4.68,0.75,6.88
				c0.5,2.2,1.72,3.96,3.67,5.28c1.95,1.32,5.31,1.98,10.08,1.98c4.64,0,7.94-0.63,9.89-1.88
				C377.27,330.14,378.47,328.41,378.91,326.21z"/>
			<path class="st3" d="M426.67,327.25c1.25,2.39,2.95,4.14,5.09,5.28c2.13,1.13,4.71,1.7,7.73,1.7c3.26,0,5.96-0.57,8.1-1.7
				c2.13-1.13,3.77-2.89,4.9-5.28l33.73-67.26c2.13-4.14,2.92-7.82,2.36-11.02c-0.57-3.2-3.42-6-8.57-8.38
				c-5.02-2.51-8.92-3.33-11.68-2.45c-2.76,0.88-5.34,4.02-7.72,9.42l-21.1,48.42l-21.1-49.18c-2.26-5.15-4.8-8.07-7.63-8.76
				c-2.83-0.69-6.63,0.09-11.4,2.36c-4.78,2.39-7.63,5.06-8.57,8.01c-0.94,2.95-0.28,6.69,1.98,11.21L426.67,327.25z"/>
			<path class="st3" d="M529.07,326.4c0.44-2.2,0.66-4.49,0.66-6.88v-65.57c0-2.64-0.22-5.02-0.66-7.16
				c-0.44-2.13-1.63-3.89-3.58-5.28c-1.95-1.38-5.18-2.07-9.7-2.07c-4.65,0-7.98,0.66-9.99,1.98c-2.01,1.32-3.24,3.05-3.67,5.18
				c-0.44,2.14-0.66,4.46-0.66,6.97v65.76c0,2.39,0.22,4.68,0.66,6.88c0.44,2.2,1.63,3.96,3.58,5.28c1.95,1.32,5.24,1.98,9.89,1.98
				c4.64,0,7.94-0.63,9.89-1.88C527.43,330.33,528.63,328.6,529.07,326.4z"/>
			<path class="st3" d="M505.42,223.62c2.01,1.38,5.4,2.07,10.17,2.07c4.77,0,8.16-0.66,10.17-1.98c2.01-1.32,3.23-3.11,3.67-5.37
				c0.44-2.26,0.66-4.64,0.66-7.16c0-2.51-0.22-4.9-0.66-7.16c-0.44-2.26-1.67-4.08-3.67-5.46c-2.01-1.38-5.34-2.07-9.99-2.07
				c-4.78,0-8.17,0.66-10.17,1.98c-2.01,1.32-3.27,3.08-3.77,5.28c-0.5,2.2-0.75,4.62-0.75,7.25c0,2.51,0.22,4.9,0.66,7.16
				C502.19,220.42,503.41,222.24,505.42,223.62z"/>
			<path class="st3" d="M578.05,331.4c4.58,1.38,10.08,2.07,16.49,2.07c2.38,0,4.68-0.19,6.88-0.57c2.2-0.38,3.99-1.57,5.37-3.58
				c1.38-2.01,2.07-5.28,2.07-9.8c0-4.14-0.6-7.09-1.79-8.85c-1.2-1.76-2.86-2.89-4.99-3.39c-2.14-0.5-4.59-0.75-7.35-0.75
				c-1.63,0-3.01-0.12-4.15-0.38c-1.13-0.25-2.01-0.69-2.64-1.32c-0.63-0.63-1.1-1.6-1.41-2.92c-0.31-1.32-0.47-2.98-0.47-4.99
				v-28.74l12.62,0.29c2.51,0,4.83-0.28,6.97-0.85c2.13-0.57,3.86-1.85,5.18-3.86c1.32-2.01,1.98-5.15,1.98-9.42
				c0-4.65-0.69-7.97-2.07-9.99c-1.38-2.01-3.14-3.23-5.28-3.67c-2.14-0.44-4.4-0.66-6.78-0.66l-12.62,0.37v-18.26
				c0-2.51-0.22-4.83-0.66-6.97c-0.44-2.13-1.67-3.89-3.67-5.28c-2.01-1.38-5.28-2.07-9.8-2.07c-4.52,0-7.79,0.66-9.8,1.98
				c-2.01,1.32-3.24,2.99-3.67,4.99c-0.44,2.01-0.66,4.27-0.66,6.78v19.22h-5.84c-3.52,0-6.16,1.1-7.91,3.3
				c-1.76,2.2-2.64,5.56-2.64,10.08c0,4.9,0.72,8.38,2.17,10.46c1.44,2.07,3.99,3.17,7.63,3.3h6.59v30.15
				c0,6.16,0.72,11.46,2.17,15.92c1.44,4.46,3.67,8.13,6.69,11.02C569.67,327.88,573.47,330.01,578.05,331.4z"/>
			<path class="st3" d="M663.5,333.28c5.02,0,9.23-0.72,12.62-2.17c3.39-1.44,6.15-3.08,8.29-4.9c2.13-1.82,3.58-3.36,4.33-4.62
				l-1.88,3.2c0,2.39,1.1,4.4,3.3,6.03c2.2,1.63,5.62,2.45,10.27,2.45c4.64,0,7.94-0.66,9.89-1.98c1.95-1.32,3.14-3.11,3.58-5.37
				c0.44-2.26,0.66-4.58,0.66-6.97v-65c0-2.51-0.22-4.9-0.66-7.16c-0.44-2.26-1.63-4.08-3.58-5.46c-1.95-1.38-5.18-2.07-9.7-2.07
				c-4.78,0-8.26,0.79-10.46,2.36c-2.2,1.57-3.24,3.86-3.11,6.88l1.51,2.64c-1.13-1.63-2.8-3.33-4.99-5.09
				c-2.2-1.76-4.93-3.3-8.2-4.62c-3.27-1.32-7.22-1.98-11.87-1.98c-5.78,0-11.24,1.26-16.39,3.77c-5.15,2.51-9.77,5.93-13.85,10.27
				c-4.08,4.33-7.29,9.3-9.61,14.88c-2.33,5.59-3.49,11.46-3.49,17.62c0,6.28,1.16,12.25,3.49,17.9c2.32,5.65,5.49,10.71,9.51,15.17
				c4.02,4.46,8.63,7.95,13.85,10.46C652.22,332.02,657.72,333.28,663.5,333.28z M650.78,276.76c1.7-2.89,3.96-5.21,6.78-6.97
				c2.83-1.76,6.06-2.64,9.7-2.64c3.26,0,6.28,0.85,9.04,2.54c2.76,1.7,4.96,3.96,6.59,6.78c1.63,2.83,2.45,6.06,2.45,9.7
				c0,3.52-0.79,6.72-2.36,9.61c-1.57,2.89-3.71,5.18-6.41,6.88c-2.7,1.7-5.68,2.54-8.95,2.54c-3.64,0-6.94-0.85-9.89-2.54
				c-2.95-1.7-5.28-3.96-6.97-6.78c-1.7-2.83-2.54-5.94-2.54-9.33C648.23,282.91,649.08,279.65,650.78,276.76z"/>
		</g>
	</g>
	<g id="digital">
		<g>
			<path class="st2" d="M338.49,377.27c-5.91-5.9-12.75-10.49-20.54-13.75c-7.79-3.26-16.2-4.9-25.25-4.9H258.8
				c-4.65-0.12-7.98,0.5-9.99,1.88c-2.01,1.38-3.27,3.17-3.77,5.37c-0.5,2.2-0.75,4.49-0.75,6.88v103.06c0,2.52,0.31,4.87,0.94,7.07
				c0.63,2.2,1.91,3.99,3.86,5.37c1.95,1.38,5.12,2.07,9.51,2.07h33.54c9.29,0,17.87-1.7,25.72-5.09
				c7.85-3.39,14.73-8.07,20.63-14.04c5.9-5.96,10.49-13,13.75-21.1c3.26-8.1,4.9-16.86,4.9-26.28c0-9.29-1.63-17.9-4.9-25.81
				C348.98,390.08,344.4,383.17,338.49,377.27z M323.8,443.59c-3.14,5.53-7.41,9.89-12.81,13.09c-5.4,3.2-11.49,4.8-18.28,4.8
				h-19.78v-74.23h19.6c6.91,0,13.06,1.6,18.46,4.8c5.4,3.2,9.67,7.63,12.81,13.28c3.14,5.65,4.71,12.06,4.71,19.22
				C328.51,431.72,326.94,438.06,323.8,443.59z"/>
			<path class="st2" d="M395.11,398.37c-1.95-1.38-5.18-2.07-9.7-2.07c-4.65,0-7.98,0.66-9.99,1.98c-2.01,1.32-3.24,3.05-3.67,5.18
				c-0.44,2.14-0.66,4.46-0.66,6.97v65.76c0,2.39,0.22,4.68,0.66,6.88c0.44,2.2,1.63,3.96,3.58,5.28c1.95,1.32,5.24,1.98,9.89,1.98
				c4.64,0,7.94-0.63,9.89-1.88c1.95-1.25,3.14-2.98,3.58-5.18c0.44-2.2,0.66-4.49,0.66-6.88v-65.57c0-2.64-0.22-5.02-0.66-7.16
				C398.25,401.51,397.06,399.75,395.11,398.37z"/>
			<path class="st2" d="M395.39,355.41c-2.01-1.38-5.34-2.07-9.99-2.07c-4.78,0-8.17,0.66-10.17,1.98
				c-2.01,1.32-3.27,3.08-3.77,5.28c-0.5,2.2-0.75,4.62-0.75,7.25c0,2.51,0.22,4.9,0.66,7.16c0.44,2.26,1.66,4.08,3.67,5.46
				c2.01,1.38,5.4,2.07,10.17,2.07c4.77,0,8.16-0.66,10.17-1.98c2.01-1.32,3.23-3.11,3.67-5.37c0.44-2.26,0.66-4.65,0.66-7.16
				c0-2.51-0.22-4.9-0.66-7.16C398.63,358.62,397.4,356.8,395.39,355.41z"/>
			<path class="st2" d="M500.05,397.71c-1.82-1.32-4.99-1.98-9.51-1.98c-4.52,0-7.88,0.72-10.08,2.17c-2.2,1.45-3.49,3.8-3.86,7.07
				v1.43c-2.15-2.83-4.72-5.1-7.73-6.8c-3.89-2.2-8.61-3.3-14.13-3.3c-5.65,0-11.02,1.22-16.11,3.67
				c-5.09,2.45-9.61,5.78-13.57,9.99c-3.96,4.21-7.07,9.04-9.33,14.51c-2.26,5.46-3.39,11.27-3.39,17.43c0,6.16,1.13,12,3.39,17.52
				c2.26,5.53,5.37,10.43,9.33,14.7c3.96,4.27,8.48,7.63,13.57,10.08c5.09,2.45,10.46,3.67,16.11,3.67c7.41,0,13.38-1.85,17.9-5.56
				c1.45-1.19,2.76-2.56,3.96-4.08v4.74c0,3.01-0.44,5.75-1.32,8.19c-0.88,2.45-2.14,4.58-3.77,6.41c-1.63,1.82-3.52,3.2-5.65,4.14
				c-2.14,0.94-4.52,1.41-7.16,1.41c-3.64,0-6.66-0.47-9.04-1.41c-2.39-0.94-4.37-1.98-5.94-3.11c-1.57-1.13-3.05-2.17-4.43-3.11
				c-1.38-0.94-2.95-1.41-4.71-1.41c-1.76,0-3.27,0.5-4.52,1.51c-1.26,1-2.76,2.45-4.52,4.33c-1.51,1.63-2.64,3.3-3.39,4.99
				c-0.75,1.7-1.13,3.55-1.13,5.56c0,2.14,1.07,4.27,3.2,6.41c2.13,2.13,5.02,4.14,8.67,6.03c3.64,1.88,7.66,3.39,12.06,4.52
				c4.4,1.13,8.79,1.7,13.19,1.7c5.78,0,11.37-1.01,16.77-3.01c5.4-2.01,10.3-4.93,14.7-8.76c4.4-3.83,7.91-8.54,10.55-14.13
				c2.64-5.59,3.96-11.96,3.96-19.12v-74.42c0-2.38-0.22-4.65-0.66-6.78C503,400.76,501.87,399.03,500.05,397.71z M473.3,451.32
				c-1.57,2.76-3.67,4.99-6.31,6.69c-2.64,1.7-5.59,2.54-8.86,2.54c-3.39,0-6.44-0.85-9.14-2.54c-2.7-1.7-4.87-3.92-6.5-6.69
				c-1.63-2.76-2.45-5.84-2.45-9.23c0-3.52,0.78-6.69,2.36-9.52c1.57-2.83,3.67-5.05,6.31-6.69c2.64-1.63,5.65-2.45,9.04-2.45
				c3.39,0,6.44,0.82,9.14,2.45c2.7,1.63,4.83,3.83,6.41,6.59c1.57,2.76,2.36,5.9,2.36,9.42
				C475.65,445.41,474.87,448.55,473.3,451.32z"/>
			<path class="st2" d="M544.99,355.41c-2.01-1.38-5.34-2.07-9.99-2.07c-4.78,0-8.17,0.66-10.17,1.98
				c-2.01,1.32-3.27,3.08-3.77,5.28c-0.5,2.2-0.75,4.62-0.75,7.25c0,2.51,0.22,4.9,0.66,7.16c0.44,2.26,1.66,4.08,3.67,5.46
				c2.01,1.38,5.4,2.07,10.17,2.07c4.77,0,8.16-0.66,10.17-1.98c2.01-1.32,3.23-3.11,3.67-5.37c0.44-2.26,0.66-4.65,0.66-7.16
				c0-2.51-0.22-4.9-0.66-7.16C548.22,358.62,546.99,356.8,544.99,355.41z"/>
			<path class="st2" d="M544.7,398.37c-1.95-1.38-5.18-2.07-9.7-2.07c-4.65,0-7.98,0.66-9.99,1.98c-2.01,1.32-3.24,3.05-3.67,5.18
				c-0.44,2.14-0.66,4.46-0.66,6.97v65.76c0,2.39,0.22,4.68,0.66,6.88c0.44,2.2,1.63,3.96,3.58,5.28c1.95,1.32,5.24,1.98,9.89,1.98
				c4.64,0,7.94-0.63,9.89-1.88c1.95-1.25,3.14-2.98,3.58-5.18c0.44-2.2,0.66-4.49,0.66-6.88v-65.57c0-2.64-0.22-5.02-0.66-7.16
				C547.84,401.51,546.65,399.75,544.7,398.37z"/>
			<path class="st2" d="M624.68,397.52c-2.14-0.44-4.4-0.66-6.78-0.66l-12.62,0.37v-18.27c0-2.51-0.22-4.83-0.66-6.97
				c-0.44-2.13-1.67-3.89-3.67-5.28c-2.01-1.38-5.28-2.07-9.8-2.07c-4.52,0-7.79,0.66-9.8,1.98c-2.01,1.32-3.24,2.99-3.67,4.99
				c-0.44,2.01-0.66,4.27-0.66,6.78v19.22h-5.84c-3.52,0-6.16,1.1-7.91,3.3c-1.76,2.2-2.64,5.56-2.64,10.08
				c0,4.9,0.72,8.38,2.17,10.46c1.44,2.07,3.99,3.17,7.63,3.3h6.59v30.15c0,6.15,0.72,11.46,2.17,15.92
				c1.44,4.46,3.67,8.13,6.69,11.02c3.01,2.89,6.81,5.02,11.4,6.41c4.58,1.38,10.08,2.07,16.49,2.07c2.38,0,4.68-0.19,6.88-0.57
				c2.2-0.38,3.99-1.57,5.37-3.58c1.38-2.01,2.07-5.28,2.07-9.8c0-4.14-0.6-7.09-1.79-8.85c-1.2-1.76-2.86-2.89-4.99-3.39
				c-2.14-0.5-4.59-0.75-7.35-0.75c-1.63,0-3.01-0.12-4.15-0.38c-1.13-0.25-2.01-0.69-2.64-1.32c-0.63-0.63-1.1-1.6-1.41-2.92
				c-0.31-1.32-0.47-2.98-0.47-4.99v-28.74l12.62,0.29c2.51,0,4.83-0.28,6.97-0.85c2.13-0.57,3.86-1.85,5.18-3.86
				c1.32-2.01,1.98-5.15,1.98-9.42c0-4.65-0.69-7.97-2.07-9.99C628.57,399.19,626.82,397.97,624.68,397.52z"/>
			<path class="st2" d="M729.53,398.18c-1.95-1.38-5.18-2.07-9.7-2.07c-4.78,0-8.26,0.79-10.46,2.35c-2.2,1.57-3.24,3.86-3.11,6.88
				l1.51,2.64c-1.13-1.63-2.8-3.33-4.99-5.09c-2.2-1.76-4.93-3.3-8.2-4.62c-3.27-1.32-7.22-1.98-11.87-1.98
				c-5.78,0-11.24,1.26-16.39,3.77c-5.15,2.51-9.77,5.93-13.85,10.27c-4.08,4.33-7.29,9.3-9.61,14.88
				c-2.33,5.59-3.49,11.46-3.49,17.62c0,6.28,1.16,12.25,3.49,17.9c2.32,5.65,5.49,10.71,9.51,15.17
				c4.02,4.46,8.63,7.95,13.85,10.46c5.21,2.51,10.71,3.77,16.49,3.77c5.02,0,9.23-0.72,12.62-2.17s6.15-3.08,8.29-4.9
				c2.13-1.82,3.58-3.36,4.33-4.62l-1.88,3.2c0,2.39,1.1,4.4,3.3,6.03c2.2,1.63,5.62,2.45,10.27,2.45c4.64,0,7.94-0.66,9.89-1.98
				c1.95-1.32,3.14-3.11,3.58-5.37c0.44-2.26,0.66-4.58,0.66-6.97v-65c0-2.51-0.22-4.9-0.66-7.16
				C732.67,401.39,731.48,399.57,729.53,398.18z M702.21,452.63c-1.57,2.89-3.71,5.18-6.41,6.88c-2.7,1.7-5.68,2.54-8.95,2.54
				c-3.64,0-6.94-0.85-9.89-2.54c-2.95-1.7-5.28-3.96-6.97-6.78s-2.54-5.94-2.54-9.33c0-3.64,0.85-6.91,2.54-9.8
				c1.7-2.89,3.96-5.21,6.78-6.97c2.83-1.76,6.06-2.64,9.7-2.64c3.26,0,6.28,0.85,9.04,2.54c2.76,1.7,4.96,3.96,6.59,6.78
				c1.63,2.83,2.45,6.06,2.45,9.7C704.57,446.54,703.78,449.74,702.21,452.63z"/>
			<path class="st2" d="M793.87,466.95c-1.13-1.88-2.48-3.01-4.05-3.39c-1.57-0.38-3.11-0.57-4.62-0.57c-1.63,0-2.95-0.12-3.96-0.38
				c-1.01-0.25-1.79-0.75-2.35-1.51c-0.57-0.75-0.94-1.79-1.13-3.11c-0.19-1.32-0.28-2.98-0.28-4.99v-85.73
				c0-2.51-0.25-4.83-0.75-6.97c-0.5-2.13-1.73-3.89-3.67-5.28c-1.95-1.38-5.18-2.07-9.7-2.07c-4.52,0-7.79,0.69-9.8,2.07
				c-2.01,1.38-3.23,3.14-3.67,5.28c-0.44,2.14-0.66,4.46-0.66,6.97v87.05c0,6.15,0.41,11.34,1.23,15.54
				c0.81,4.21,2.1,7.63,3.86,10.27c1.76,2.64,4.05,4.71,6.88,6.22c2.83,1.51,6.22,2.54,10.18,3.11c3.96,0.57,8.51,0.85,13.66,0.85
				c1.63,0,3.23-0.19,4.8-0.57c1.57-0.38,2.92-1.57,4.05-3.58c1.13-2.01,1.7-5.28,1.7-9.8C795.57,471.98,795,468.84,793.87,466.95z"
				/>
		</g>
		<g>
			<path class="st1" d="M338.49,377.27c-5.91-5.9-12.75-10.49-20.54-13.75c-7.79-3.26-16.2-4.9-25.25-4.9H258.8
				c-4.65-0.12-7.98,0.5-9.99,1.88c-2.01,1.38-3.27,3.17-3.77,5.37c-0.5,2.2-0.75,4.49-0.75,6.88v103.06c0,2.52,0.31,4.87,0.94,7.07
				c0.63,2.2,1.91,3.99,3.86,5.37c1.95,1.38,5.12,2.07,9.51,2.07h33.54c9.29,0,17.87-1.7,25.72-5.09
				c7.85-3.39,14.73-8.07,20.63-14.04c5.9-5.96,10.49-13,13.75-21.1c3.26-8.1,4.9-16.86,4.9-26.28c0-9.29-1.63-17.9-4.9-25.81
				C348.98,390.08,344.4,383.17,338.49,377.27z M323.8,443.59c-3.14,5.53-7.41,9.89-12.81,13.09c-5.4,3.2-11.49,4.8-18.28,4.8
				h-19.78v-74.23h19.6c6.91,0,13.06,1.6,18.46,4.8c5.4,3.2,9.67,7.63,12.81,13.28c3.14,5.65,4.71,12.06,4.71,19.22
				C328.51,431.72,326.94,438.06,323.8,443.59z"/>
			<path class="st1" d="M395.11,398.37c-1.95-1.38-5.18-2.07-9.7-2.07c-4.65,0-7.98,0.66-9.99,1.98c-2.01,1.32-3.24,3.05-3.67,5.18
				c-0.44,2.14-0.66,4.46-0.66,6.97v65.76c0,2.39,0.22,4.68,0.66,6.88c0.44,2.2,1.63,3.96,3.58,5.28c1.95,1.32,5.24,1.98,9.89,1.98
				c4.64,0,7.94-0.63,9.89-1.88c1.95-1.25,3.14-2.98,3.58-5.18c0.44-2.2,0.66-4.49,0.66-6.88v-65.57c0-2.64-0.22-5.02-0.66-7.16
				C398.25,401.51,397.06,399.75,395.11,398.37z"/>
			<path class="st1" d="M395.39,355.41c-2.01-1.38-5.34-2.07-9.99-2.07c-4.78,0-8.17,0.66-10.17,1.98
				c-2.01,1.32-3.27,3.08-3.77,5.28c-0.5,2.2-0.75,4.62-0.75,7.25c0,2.51,0.22,4.9,0.66,7.16c0.44,2.26,1.66,4.08,3.67,5.46
				c2.01,1.38,5.4,2.07,10.17,2.07c4.77,0,8.16-0.66,10.17-1.98c2.01-1.32,3.23-3.11,3.67-5.37c0.44-2.26,0.66-4.65,0.66-7.16
				c0-2.51-0.22-4.9-0.66-7.16C398.63,358.62,397.4,356.8,395.39,355.41z"/>
			<path class="st1" d="M500.05,397.71c-1.82-1.32-4.99-1.98-9.51-1.98c-4.52,0-7.88,0.72-10.08,2.17c-2.2,1.45-3.49,3.8-3.86,7.07
				v1.43c-2.15-2.83-4.72-5.1-7.73-6.8c-3.89-2.2-8.61-3.3-14.13-3.3c-5.65,0-11.02,1.22-16.11,3.67
				c-5.09,2.45-9.61,5.78-13.57,9.99c-3.96,4.21-7.07,9.04-9.33,14.51c-2.26,5.46-3.39,11.27-3.39,17.43c0,6.16,1.13,12,3.39,17.52
				c2.26,5.53,5.37,10.43,9.33,14.7c3.96,4.27,8.48,7.63,13.57,10.08c5.09,2.45,10.46,3.67,16.11,3.67c7.41,0,13.38-1.85,17.9-5.56
				c1.45-1.19,2.76-2.56,3.96-4.08v4.74c0,3.01-0.44,5.75-1.32,8.19c-0.88,2.45-2.14,4.58-3.77,6.41c-1.63,1.82-3.52,3.2-5.65,4.14
				c-2.14,0.94-4.52,1.41-7.16,1.41c-3.64,0-6.66-0.47-9.04-1.41c-2.39-0.94-4.37-1.98-5.94-3.11c-1.57-1.13-3.05-2.17-4.43-3.11
				c-1.38-0.94-2.95-1.41-4.71-1.41c-1.76,0-3.27,0.5-4.52,1.51c-1.26,1-2.76,2.45-4.52,4.33c-1.51,1.63-2.64,3.3-3.39,4.99
				c-0.75,1.7-1.13,3.55-1.13,5.56c0,2.14,1.07,4.27,3.2,6.41c2.13,2.13,5.02,4.14,8.67,6.03c3.64,1.88,7.66,3.39,12.06,4.52
				c4.4,1.13,8.79,1.7,13.19,1.7c5.78,0,11.37-1.01,16.77-3.01c5.4-2.01,10.3-4.93,14.7-8.76c4.4-3.83,7.91-8.54,10.55-14.13
				c2.64-5.59,3.96-11.96,3.96-19.12v-74.42c0-2.38-0.22-4.65-0.66-6.78C503,400.76,501.87,399.03,500.05,397.71z M473.3,451.32
				c-1.57,2.76-3.67,4.99-6.31,6.69c-2.64,1.7-5.59,2.54-8.86,2.54c-3.39,0-6.44-0.85-9.14-2.54c-2.7-1.7-4.87-3.92-6.5-6.69
				c-1.63-2.76-2.45-5.84-2.45-9.23c0-3.52,0.78-6.69,2.36-9.52c1.57-2.83,3.67-5.05,6.31-6.69c2.64-1.63,5.65-2.45,9.04-2.45
				c3.39,0,6.44,0.82,9.14,2.45c2.7,1.63,4.83,3.83,6.41,6.59c1.57,2.76,2.36,5.9,2.36,9.42
				C475.65,445.41,474.87,448.55,473.3,451.32z"/>
			<path class="st1" d="M544.99,355.41c-2.01-1.38-5.34-2.07-9.99-2.07c-4.78,0-8.17,0.66-10.17,1.98
				c-2.01,1.32-3.27,3.08-3.77,5.28c-0.5,2.2-0.75,4.62-0.75,7.25c0,2.51,0.22,4.9,0.66,7.16c0.44,2.26,1.66,4.08,3.67,5.46
				c2.01,1.38,5.4,2.07,10.17,2.07c4.77,0,8.16-0.66,10.17-1.98c2.01-1.32,3.23-3.11,3.67-5.37c0.44-2.26,0.66-4.65,0.66-7.16
				c0-2.51-0.22-4.9-0.66-7.16C548.22,358.62,546.99,356.8,544.99,355.41z"/>
			<path class="st1" d="M544.7,398.37c-1.95-1.38-5.18-2.07-9.7-2.07c-4.65,0-7.98,0.66-9.99,1.98c-2.01,1.32-3.24,3.05-3.67,5.18
				c-0.44,2.14-0.66,4.46-0.66,6.97v65.76c0,2.39,0.22,4.68,0.66,6.88c0.44,2.2,1.63,3.96,3.58,5.28c1.95,1.32,5.24,1.98,9.89,1.98
				c4.64,0,7.94-0.63,9.89-1.88c1.95-1.25,3.14-2.98,3.58-5.18c0.44-2.2,0.66-4.49,0.66-6.88v-65.57c0-2.64-0.22-5.02-0.66-7.16
				C547.84,401.51,546.65,399.75,544.7,398.37z"/>
			<path class="st1" d="M624.68,397.52c-2.14-0.44-4.4-0.66-6.78-0.66l-12.62,0.37v-18.27c0-2.51-0.22-4.83-0.66-6.97
				c-0.44-2.13-1.67-3.89-3.67-5.28c-2.01-1.38-5.28-2.07-9.8-2.07c-4.52,0-7.79,0.66-9.8,1.98c-2.01,1.32-3.24,2.99-3.67,4.99
				c-0.44,2.01-0.66,4.27-0.66,6.78v19.22h-5.84c-3.52,0-6.16,1.1-7.91,3.3c-1.76,2.2-2.64,5.56-2.64,10.08
				c0,4.9,0.72,8.38,2.17,10.46c1.44,2.07,3.99,3.17,7.63,3.3h6.59v30.15c0,6.15,0.72,11.46,2.17,15.92
				c1.44,4.46,3.67,8.13,6.69,11.02c3.01,2.89,6.81,5.02,11.4,6.41c4.58,1.38,10.08,2.07,16.49,2.07c2.38,0,4.68-0.19,6.88-0.57
				c2.2-0.38,3.99-1.57,5.37-3.58c1.38-2.01,2.07-5.28,2.07-9.8c0-4.14-0.6-7.09-1.79-8.85c-1.2-1.76-2.86-2.89-4.99-3.39
				c-2.14-0.5-4.59-0.75-7.35-0.75c-1.63,0-3.01-0.12-4.15-0.38c-1.13-0.25-2.01-0.69-2.64-1.32c-0.63-0.63-1.1-1.6-1.41-2.92
				c-0.31-1.32-0.47-2.98-0.47-4.99v-28.74l12.62,0.29c2.51,0,4.83-0.28,6.97-0.85c2.13-0.57,3.86-1.85,5.18-3.86
				c1.32-2.01,1.98-5.15,1.98-9.42c0-4.65-0.69-7.97-2.07-9.99C628.57,399.19,626.82,397.97,624.68,397.52z"/>
			<path class="st1" d="M729.53,398.18c-1.95-1.38-5.18-2.07-9.7-2.07c-4.78,0-8.26,0.79-10.46,2.35c-2.2,1.57-3.24,3.86-3.11,6.88
				l1.51,2.64c-1.13-1.63-2.8-3.33-4.99-5.09c-2.2-1.76-4.93-3.3-8.2-4.62c-3.27-1.32-7.22-1.98-11.87-1.98
				c-5.78,0-11.24,1.26-16.39,3.77c-5.15,2.51-9.77,5.93-13.85,10.27c-4.08,4.33-7.29,9.3-9.61,14.88
				c-2.33,5.59-3.49,11.46-3.49,17.62c0,6.28,1.16,12.25,3.49,17.9c2.32,5.65,5.49,10.71,9.51,15.17
				c4.02,4.46,8.63,7.95,13.85,10.46c5.21,2.51,10.71,3.77,16.49,3.77c5.02,0,9.23-0.72,12.62-2.17s6.15-3.08,8.29-4.9
				c2.13-1.82,3.58-3.36,4.33-4.62l-1.88,3.2c0,2.39,1.1,4.4,3.3,6.03c2.2,1.63,5.62,2.45,10.27,2.45c4.64,0,7.94-0.66,9.89-1.98
				c1.95-1.32,3.14-3.11,3.58-5.37c0.44-2.26,0.66-4.58,0.66-6.97v-65c0-2.51-0.22-4.9-0.66-7.16
				C732.67,401.39,731.48,399.57,729.53,398.18z M702.21,452.63c-1.57,2.89-3.71,5.18-6.41,6.88c-2.7,1.7-5.68,2.54-8.95,2.54
				c-3.64,0-6.94-0.85-9.89-2.54c-2.95-1.7-5.28-3.96-6.97-6.78s-2.54-5.94-2.54-9.33c0-3.64,0.85-6.91,2.54-9.8
				c1.7-2.89,3.96-5.21,6.78-6.97c2.83-1.76,6.06-2.64,9.7-2.64c3.26,0,6.28,0.85,9.04,2.54c2.76,1.7,4.96,3.96,6.59,6.78
				c1.63,2.83,2.45,6.06,2.45,9.7C704.57,446.54,703.78,449.74,702.21,452.63z"/>
			<path class="st1" d="M793.87,466.95c-1.13-1.88-2.48-3.01-4.05-3.39c-1.57-0.38-3.11-0.57-4.62-0.57c-1.63,0-2.95-0.12-3.96-0.38
				c-1.01-0.25-1.79-0.75-2.35-1.51c-0.57-0.75-0.94-1.79-1.13-3.11c-0.19-1.32-0.28-2.98-0.28-4.99v-85.73
				c0-2.51-0.25-4.83-0.75-6.97c-0.5-2.13-1.73-3.89-3.67-5.28c-1.95-1.38-5.18-2.07-9.7-2.07c-4.52,0-7.79,0.69-9.8,2.07
				c-2.01,1.38-3.23,3.14-3.67,5.28c-0.44,2.14-0.66,4.46-0.66,6.97v87.05c0,6.15,0.41,11.34,1.23,15.54
				c0.81,4.21,2.1,7.63,3.86,10.27c1.76,2.64,4.05,4.71,6.88,6.22c2.83,1.51,6.22,2.54,10.18,3.11c3.96,0.57,8.51,0.85,13.66,0.85
				c1.63,0,3.23-0.19,4.8-0.57c1.57-0.38,2.92-1.57,4.05-3.58c1.13-2.01,1.7-5.28,1.7-9.8C795.57,471.98,795,468.84,793.87,466.95z"
				/>
		</g>
		<g>
			<path class="st2" d="M338.49,377.27c-5.91-5.9-12.75-10.49-20.54-13.75c-7.79-3.26-16.2-4.9-25.25-4.9H258.8
				c-4.65-0.12-7.98,0.5-9.99,1.88c-2.01,1.38-3.27,3.17-3.77,5.37c-0.5,2.2-0.75,4.49-0.75,6.88v103.06c0,2.52,0.31,4.87,0.94,7.07
				c0.63,2.2,1.91,3.99,3.86,5.37c1.95,1.38,5.12,2.07,9.51,2.07h33.54c9.29,0,17.87-1.7,25.72-5.09
				c7.85-3.39,14.73-8.07,20.63-14.04c5.9-5.96,10.49-13,13.75-21.1c3.26-8.1,4.9-16.86,4.9-26.28c0-9.29-1.63-17.9-4.9-25.81
				C348.98,390.08,344.4,383.17,338.49,377.27z M323.8,443.59c-3.14,5.53-7.41,9.89-12.81,13.09c-5.4,3.2-11.49,4.8-18.28,4.8
				h-19.78v-74.23h19.6c6.91,0,13.06,1.6,18.46,4.8c5.4,3.2,9.67,7.63,12.81,13.28c3.14,5.65,4.71,12.06,4.71,19.22
				C328.51,431.72,326.94,438.06,323.8,443.59z"/>
			<path class="st2" d="M395.11,398.37c-1.95-1.38-5.18-2.07-9.7-2.07c-4.65,0-7.98,0.66-9.99,1.98c-2.01,1.32-3.24,3.05-3.67,5.18
				c-0.44,2.14-0.66,4.46-0.66,6.97v65.76c0,2.39,0.22,4.68,0.66,6.88c0.44,2.2,1.63,3.96,3.58,5.28c1.95,1.32,5.24,1.98,9.89,1.98
				c4.64,0,7.94-0.63,9.89-1.88c1.95-1.25,3.14-2.98,3.58-5.18c0.44-2.2,0.66-4.49,0.66-6.88v-65.57c0-2.64-0.22-5.02-0.66-7.16
				C398.25,401.51,397.06,399.75,395.11,398.37z"/>
			<path class="st2" d="M395.39,355.41c-2.01-1.38-5.34-2.07-9.99-2.07c-4.78,0-8.17,0.66-10.17,1.98
				c-2.01,1.32-3.27,3.08-3.77,5.28c-0.5,2.2-0.75,4.62-0.75,7.25c0,2.51,0.22,4.9,0.66,7.16c0.44,2.26,1.66,4.08,3.67,5.46
				c2.01,1.38,5.4,2.07,10.17,2.07c4.77,0,8.16-0.66,10.17-1.98c2.01-1.32,3.23-3.11,3.67-5.37c0.44-2.26,0.66-4.65,0.66-7.16
				c0-2.51-0.22-4.9-0.66-7.16C398.63,358.62,397.4,356.8,395.39,355.41z"/>
			<path class="st2" d="M500.05,397.71c-1.82-1.32-4.99-1.98-9.51-1.98c-4.52,0-7.88,0.72-10.08,2.17c-2.2,1.45-3.49,3.8-3.86,7.07
				v1.43c-2.15-2.83-4.72-5.1-7.73-6.8c-3.89-2.2-8.61-3.3-14.13-3.3c-5.65,0-11.02,1.22-16.11,3.67
				c-5.09,2.45-9.61,5.78-13.57,9.99c-3.96,4.21-7.07,9.04-9.33,14.51c-2.26,5.46-3.39,11.27-3.39,17.43c0,6.16,1.13,12,3.39,17.52
				c2.26,5.53,5.37,10.43,9.33,14.7c3.96,4.27,8.48,7.63,13.57,10.08c5.09,2.45,10.46,3.67,16.11,3.67c7.41,0,13.38-1.85,17.9-5.56
				c1.45-1.19,2.76-2.56,3.96-4.08v4.74c0,3.01-0.44,5.75-1.32,8.19c-0.88,2.45-2.14,4.58-3.77,6.41c-1.63,1.82-3.52,3.2-5.65,4.14
				c-2.14,0.94-4.52,1.41-7.16,1.41c-3.64,0-6.66-0.47-9.04-1.41c-2.39-0.94-4.37-1.98-5.94-3.11c-1.57-1.13-3.05-2.17-4.43-3.11
				c-1.38-0.94-2.95-1.41-4.71-1.41c-1.76,0-3.27,0.5-4.52,1.51c-1.26,1-2.76,2.45-4.52,4.33c-1.51,1.63-2.64,3.3-3.39,4.99
				c-0.75,1.7-1.13,3.55-1.13,5.56c0,2.14,1.07,4.27,3.2,6.41c2.13,2.13,5.02,4.14,8.67,6.03c3.64,1.88,7.66,3.39,12.06,4.52
				c4.4,1.13,8.79,1.7,13.19,1.7c5.78,0,11.37-1.01,16.77-3.01c5.4-2.01,10.3-4.93,14.7-8.76c4.4-3.83,7.91-8.54,10.55-14.13
				c2.64-5.59,3.96-11.96,3.96-19.12v-74.42c0-2.38-0.22-4.65-0.66-6.78C503,400.76,501.87,399.03,500.05,397.71z M473.3,451.32
				c-1.57,2.76-3.67,4.99-6.31,6.69c-2.64,1.7-5.59,2.54-8.86,2.54c-3.39,0-6.44-0.85-9.14-2.54c-2.7-1.7-4.87-3.92-6.5-6.69
				c-1.63-2.76-2.45-5.84-2.45-9.23c0-3.52,0.78-6.69,2.36-9.52c1.57-2.83,3.67-5.05,6.31-6.69c2.64-1.63,5.65-2.45,9.04-2.45
				c3.39,0,6.44,0.82,9.14,2.45c2.7,1.63,4.83,3.83,6.41,6.59c1.57,2.76,2.36,5.9,2.36,9.42
				C475.65,445.41,474.87,448.55,473.3,451.32z"/>
			<path class="st2" d="M544.99,355.41c-2.01-1.38-5.34-2.07-9.99-2.07c-4.78,0-8.17,0.66-10.17,1.98
				c-2.01,1.32-3.27,3.08-3.77,5.28c-0.5,2.2-0.75,4.62-0.75,7.25c0,2.51,0.22,4.9,0.66,7.16c0.44,2.26,1.66,4.08,3.67,5.46
				c2.01,1.38,5.4,2.07,10.17,2.07c4.77,0,8.16-0.66,10.17-1.98c2.01-1.32,3.23-3.11,3.67-5.37c0.44-2.26,0.66-4.65,0.66-7.16
				c0-2.51-0.22-4.9-0.66-7.16C548.22,358.62,546.99,356.8,544.99,355.41z"/>
			<path class="st2" d="M544.7,398.37c-1.95-1.38-5.18-2.07-9.7-2.07c-4.65,0-7.98,0.66-9.99,1.98c-2.01,1.32-3.24,3.05-3.67,5.18
				c-0.44,2.14-0.66,4.46-0.66,6.97v65.76c0,2.39,0.22,4.68,0.66,6.88c0.44,2.2,1.63,3.96,3.58,5.28c1.95,1.32,5.24,1.98,9.89,1.98
				c4.64,0,7.94-0.63,9.89-1.88c1.95-1.25,3.14-2.98,3.58-5.18c0.44-2.2,0.66-4.49,0.66-6.88v-65.57c0-2.64-0.22-5.02-0.66-7.16
				C547.84,401.51,546.65,399.75,544.7,398.37z"/>
			<path class="st2" d="M624.68,397.52c-2.14-0.44-4.4-0.66-6.78-0.66l-12.62,0.37v-18.27c0-2.51-0.22-4.83-0.66-6.97
				c-0.44-2.13-1.67-3.89-3.67-5.28c-2.01-1.38-5.28-2.07-9.8-2.07c-4.52,0-7.79,0.66-9.8,1.98c-2.01,1.32-3.24,2.99-3.67,4.99
				c-0.44,2.01-0.66,4.27-0.66,6.78v19.22h-5.84c-3.52,0-6.16,1.1-7.91,3.3c-1.76,2.2-2.64,5.56-2.64,10.08
				c0,4.9,0.72,8.38,2.17,10.46c1.44,2.07,3.99,3.17,7.63,3.3h6.59v30.15c0,6.15,0.72,11.46,2.17,15.92
				c1.44,4.46,3.67,8.13,6.69,11.02c3.01,2.89,6.81,5.02,11.4,6.41c4.58,1.38,10.08,2.07,16.49,2.07c2.38,0,4.68-0.19,6.88-0.57
				c2.2-0.38,3.99-1.57,5.37-3.58c1.38-2.01,2.07-5.28,2.07-9.8c0-4.14-0.6-7.09-1.79-8.85c-1.2-1.76-2.86-2.89-4.99-3.39
				c-2.14-0.5-4.59-0.75-7.35-0.75c-1.63,0-3.01-0.12-4.15-0.38c-1.13-0.25-2.01-0.69-2.64-1.32c-0.63-0.63-1.1-1.6-1.41-2.92
				c-0.31-1.32-0.47-2.98-0.47-4.99v-28.74l12.62,0.29c2.51,0,4.83-0.28,6.97-0.85c2.13-0.57,3.86-1.85,5.18-3.86
				c1.32-2.01,1.98-5.15,1.98-9.42c0-4.65-0.69-7.97-2.07-9.99C628.57,399.19,626.82,397.97,624.68,397.52z"/>
			<path class="st2" d="M729.53,398.18c-1.95-1.38-5.18-2.07-9.7-2.07c-4.78,0-8.26,0.79-10.46,2.35c-2.2,1.57-3.24,3.86-3.11,6.88
				l1.51,2.64c-1.13-1.63-2.8-3.33-4.99-5.09c-2.2-1.76-4.93-3.3-8.2-4.62c-3.27-1.32-7.22-1.98-11.87-1.98
				c-5.78,0-11.24,1.26-16.39,3.77c-5.15,2.51-9.77,5.93-13.85,10.27c-4.08,4.33-7.29,9.3-9.61,14.88
				c-2.33,5.59-3.49,11.46-3.49,17.62c0,6.28,1.16,12.25,3.49,17.9c2.32,5.65,5.49,10.71,9.51,15.17
				c4.02,4.46,8.63,7.95,13.85,10.46c5.21,2.51,10.71,3.77,16.49,3.77c5.02,0,9.23-0.72,12.62-2.17s6.15-3.08,8.29-4.9
				c2.13-1.82,3.58-3.36,4.33-4.62l-1.88,3.2c0,2.39,1.1,4.4,3.3,6.03c2.2,1.63,5.62,2.45,10.27,2.45c4.64,0,7.94-0.66,9.89-1.98
				c1.95-1.32,3.14-3.11,3.58-5.37c0.44-2.26,0.66-4.58,0.66-6.97v-65c0-2.51-0.22-4.9-0.66-7.16
				C732.67,401.39,731.48,399.57,729.53,398.18z M702.21,452.63c-1.57,2.89-3.71,5.18-6.41,6.88c-2.7,1.7-5.68,2.54-8.95,2.54
				c-3.64,0-6.94-0.85-9.89-2.54c-2.95-1.7-5.28-3.96-6.97-6.78s-2.54-5.94-2.54-9.33c0-3.64,0.85-6.91,2.54-9.8
				c1.7-2.89,3.96-5.21,6.78-6.97c2.83-1.76,6.06-2.64,9.7-2.64c3.26,0,6.28,0.85,9.04,2.54c2.76,1.7,4.96,3.96,6.59,6.78
				c1.63,2.83,2.45,6.06,2.45,9.7C704.57,446.54,703.78,449.74,702.21,452.63z"/>
			<path class="st2" d="M793.87,466.95c-1.13-1.88-2.48-3.01-4.05-3.39c-1.57-0.38-3.11-0.57-4.62-0.57c-1.63,0-2.95-0.12-3.96-0.38
				c-1.01-0.25-1.79-0.75-2.35-1.51c-0.57-0.75-0.94-1.79-1.13-3.11c-0.19-1.32-0.28-2.98-0.28-4.99v-85.73
				c0-2.51-0.25-4.83-0.75-6.97c-0.5-2.13-1.73-3.89-3.67-5.28c-1.95-1.38-5.18-2.07-9.7-2.07c-4.52,0-7.79,0.69-9.8,2.07
				c-2.01,1.38-3.23,3.14-3.67,5.28c-0.44,2.14-0.66,4.46-0.66,6.97v87.05c0,6.15,0.41,11.34,1.23,15.54
				c0.81,4.21,2.1,7.63,3.86,10.27c1.76,2.64,4.05,4.71,6.88,6.22c2.83,1.51,6.22,2.54,10.18,3.11c3.96,0.57,8.51,0.85,13.66,0.85
				c1.63,0,3.23-0.19,4.8-0.57c1.57-0.38,2.92-1.57,4.05-3.58c1.13-2.01,1.7-5.28,1.7-9.8C795.57,471.98,795,468.84,793.87,466.95z"
				/>
		</g>
	</g>
	<g>
		<g>
			<path class="st4" d="M948.93,282.96l-66.85,164.22c-2.9,7.12-12.6,8.07-16.82,1.65L767.8,300.71L948.93,282.96z"/>
			
				<ellipse transform="matrix(0.9952 -0.0975 0.0975 0.9952 -23.8108 85.0279)" class="st5" cx="857.8" cy="286.06" rx="92.55" ry="31.6"/>
			
				<linearGradient id="SVGID_1_" gradientUnits="userSpaceOnUse" x1="846.0053" y1="431.8607" x2="883.2256" y2="392.1591" gradientTransform="matrix(0.6348 -0.7727 0.7727 0.6348 -9.3929 692.6201)">
				<stop  offset="0" style="stop-color:#765246"/>
				<stop  offset="1" style="stop-color:#513C35"/>
			</linearGradient>
			<path class="st6" d="M941.55,277.85c0.66,6.8-7.37,14.46-22.05,21.02c-15.44,6.9-36.41,11.93-59.05,14.15
				c-22.64,2.22-44.18,1.36-60.67-2.42c-15.68-3.59-25.05-9.54-25.72-16.33c-0.67-6.79,7.37-14.45,22.06-21.02
				c15.44-6.9,36.41-11.93,59.05-14.15c22.64-2.22,44.19-1.36,60.67,2.42C931.51,265.11,940.88,271.06,941.55,277.85z"/>
			<path class="st7" d="M939.34,306.52l-12.94,31.78c-6.62,3.97-13.58,7.51-20.84,10.63c-15.81,6.78-33.16,11.54-51.57,14.16
				c-2.99,0.42-6.33,0.83-9.98,1.19c-9.43,0.92-20.92,1.49-33.74,0.97l-12.48-18.97c22.1,2.23,41.17,0.71,53.66-1.07
				C886.61,340.22,916.13,327.22,939.34,306.52z"/>
			<path class="st7" d="M917.76,359.54l-10.2,25.06c-15.42,6.45-32.28,11.01-50.13,13.55c-2.99,0.42-6.33,0.83-9.98,1.19
				c-4.3,0.42-9.03,0.77-14.12,0.97l-11.76-17.87c13.38,0.11,24.86-0.98,33.31-2.18C878.44,376.92,899.47,369.98,917.76,359.54z"/>
			<path class="st7" d="M899.29,404.91l-8.95,21.99c-9.44,2.74-19.3,4.84-29.47,6.28c-1.7,0.24-3.51,0.48-5.43,0.7l-11.22-17.06
				c5.31-0.4,10.06-0.95,14.11-1.53C872.97,413.23,886.64,409.76,899.29,404.91z"/>
		</g>
		<g>
			<path class="st8" d="M813.26,279.18l-11.29,1.11c-1.76-17.92-9.78-33.93-23.85-47.59c-10.7-10.39-21.07-15.43-21.17-15.48
				l4.89-10.23c0.48,0.23,11.88,5.73,23.88,17.28C801.72,239.68,811.25,258.67,813.26,279.18z"/>
			<path class="st7" d="M909.18,275.48l-11.29,1.11c-2.17-22.1,5.83-44.28,23.13-64.14c12.84-14.74,26.2-23.01,26.76-23.36
				l5.93,9.67l-2.96-4.83l2.97,4.83c-0.12,0.08-12.65,7.86-24.35,21.38C914.1,237.76,907.31,256.38,909.18,275.48z"/>
			<path class="st9" d="M819.97,252.97c-2.67-7.51-0.62-12.82,0.88-16.7c1.27-3.28,2.03-5.26,0.77-8.81
				c-1.26-3.55-3.1-4.6-6.16-6.34c-3.61-2.06-8.55-4.88-11.22-12.39c-2.67-7.51-0.62-12.82,0.88-16.7c1.27-3.28,2.03-5.26,0.77-8.81
				c-1.26-3.55-3.11-4.6-6.16-6.35c-3.61-2.06-8.55-4.88-11.22-12.4l10.69-3.8c1.26,3.55,3.11,4.6,6.16,6.35
				c3.61,2.06,8.55,4.88,11.22,12.4c2.67,7.51,0.62,12.82-0.88,16.7c-1.27,3.28-2.03,5.26-0.77,8.81c1.26,3.55,3.1,4.6,6.16,6.34
				c3.61,2.06,8.55,4.88,11.22,12.39c2.67,7.51,0.62,12.82-0.88,16.7c-1.27,3.28-2.03,5.26-0.77,8.81L819.97,252.97z"/>
			<path class="st10" d="M873.13,236.14l-11.17-1.98c1.44-8.09,5.99-11.81,9.31-14.52c2.88-2.35,4.62-3.77,5.32-7.72
				c0.7-3.95-0.44-5.88-2.34-9.08c-2.19-3.69-5.18-8.75-3.75-16.84c1.44-8.09,5.99-11.81,9.31-14.52c2.88-2.35,4.62-3.77,5.32-7.72
				c0.7-3.95-0.44-5.88-2.34-9.08c-2.19-3.69-5.18-8.75-3.75-16.84l11.17,1.98c-0.7,3.95,0.44,5.88,2.34,9.08
				c2.19,3.69,5.18,8.75,3.75,16.84c-1.44,8.09-5.99,11.81-9.31,14.52c-2.88,2.35-4.62,3.77-5.32,7.72
				c-0.7,3.95,0.44,5.88,2.34,9.08c2.19,3.69,5.18,8.75,3.75,16.84c-1.44,8.09-5.99,11.81-9.31,14.52
				C875.57,230.77,873.83,232.19,873.13,236.14z"/>
			<circle class="st10" cx="914.96" cy="177.49" r="5.67"/>
			<circle class="st8" cx="950.04" cy="239" r="5.67"/>
			<circle class="st7" cx="945.95" cy="168.19" r="5.67"/>
			<circle class="st9" cx="856.27" cy="154.19" r="5.67"/>
			<circle class="st7" cx="771.12" cy="192.16" r="5.67"/>
			<circle class="st4" cx="833.85" cy="192.85" r="5.67"/>
			<circle class="st9" cx="860.84" cy="270.53" r="5.67"/>
			<circle class="st10" cx="751.92" cy="257.85" r="5.67"/>
		</g>
	</g>
	<g>
		<polygon class="st11" points="295.37,344.4 276.03,334.58 267.44,347.16 291.99,350.23 		"/>
		<polygon class="st11" points="449.11,445.77 458.93,448.23 463.43,445.77 458.93,431.86 		"/>
		<polygon class="st11" points="617.69,443.72 620.35,454.77 627.1,451.09 629.14,441.68 623.01,436.77 		"/>
		<polygon class="st11" points="687.86,436.77 680.8,440.04 682.34,448.23 687.86,449.35 692.46,445.77 		"/>
		<polygon class="st11" points="662.7,283.02 662.7,289.16 669.75,293.46 673.13,289.47 669.75,280.57 		"/>
		<polygon class="st11" points="597.95,283.64 600.4,293.46 608.99,293.46 606.23,280.57 		"/>
		<polygon class="st11" points="411.21,491.39 417.5,492.31 418.73,487.71 414.13,483.11 		"/>
		<polygon class="st11" points="305.8,399.02 286.47,397.03 283.86,402.71 283.86,446.9 286.47,446.9 309.79,445.21 318.99,432.47 
			316.23,409 		"/>
	</g>
</g>
</svg>
