<?xml version="1.0" encoding="utf-8"?>
<!-- Generator: Adobe Illustrator 24.2.3, SVG Export Plug-In . SVG Version: 6.00 Build 0)  -->
<svg version="1.1" id="Capa_1" xmlns="http://www.w3.org/2000/svg" xmlns:xlink="http://www.w3.org/1999/xlink" x="0px" y="0px"
	 viewBox="0 0 841.89 595.28" style="enable-background:new 0 0 841.89 595.28;" xml:space="preserve">
<style type="text/css">
	.st0{display:none;}
	.st1{display:inline;}
	.st2{fill:none;stroke:#FFFFFF;stroke-width:30;stroke-miterlimit:10;}
	.st3{fill:#FF66C4;}
	.st4{fill:#A578DA;}
	.st5{fill:#FCD031;}
	.st6{fill:#FFDA64;}
	.st7{fill:url(#SVGID_1_);}
	.st8{fill:#2252FF;}
	.st9{fill:#F2112D;}
	.st10{fill:#FF4901;}
	.st11{fill:#7416EF;}
	.st12{fill:#FFFFFF;}
	.st13{display:none;fill:#0097B2;}
	.st14{fill:url(#SVGID_2_);}
	.st15{fill:none;stroke:#FFFFFF;stroke-width:35;stroke-miterlimit:10;}
</style>
<rect class="st13" width="841.89" height="595.28"/>
<g>
	<g>
		<g>
			<path class="st5" d="M508.19,265.34l-209.77,94.61c-9.1,4.1-19.06-3.68-17.29-13.5L322,119.99L508.19,265.34z"/>
			
				<ellipse transform="matrix(0.6153 -0.7883 0.7883 0.6153 14.255 402.679)" class="st6" cx="419.73" cy="186.73" rx="41.02" ry="120.12"/>
			
				<linearGradient id="SVGID_1_" gradientUnits="userSpaceOnUse" x1="358.1534" y1="706.3356" x2="406.46" y2="654.8086" gradientTransform="matrix(0.9925 -0.1223 0.1223 0.9925 -42.9224 -441.9918)">
				<stop  offset="0" style="stop-color:#765246"/>
				<stop  offset="1" style="stop-color:#513C35"/>
			</linearGradient>
			<path class="st7" d="M505.82,253.93c-5.46,6.98-19.86,7-39.54,0.04c-20.69-7.32-44.91-21.36-68.18-39.53
				c-23.27-18.16-42.76-38.25-54.89-56.55c-11.53-17.4-15.02-31.38-9.57-38.36c5.45-6.98,19.86-6.99,39.55-0.03
				c20.69,7.32,44.91,21.35,68.18,39.52s42.76,38.26,54.89,56.55C507.78,232.97,511.27,246.95,505.82,253.93z"/>
			<path class="st8" d="M478.09,278.92l-40.6,18.31c-9.78-2.19-19.49-5.08-29.1-8.65c-20.93-7.77-41.5-18.81-61.16-32.82
				c-3.19-2.27-6.7-4.88-10.45-7.81c-9.69-7.57-21-17.31-32.59-29.28l5.24-29.01c18.78,21.87,38.08,37.5,51.41,47
				C398.36,263.43,437.76,277.61,478.09,278.92z"/>
			<path class="st8" d="M410.37,309.46l-32.01,14.44c-20.27-7.73-40.2-18.53-59.26-32.11c-3.19-2.27-6.7-4.88-10.45-7.81
				c-4.42-3.45-9.18-7.36-14.14-11.72l4.93-27.32c12.48,12.08,24.25,21.32,33.27,27.75C357.85,290.63,383.83,302.91,410.37,309.46z"
				/>
			<path class="st8" d="M352.41,335.6l-28.1,12.67c-11.33-5.88-22.47-12.72-33.33-20.46c-1.81-1.3-3.73-2.69-5.73-4.2l4.71-26.07
				c5.36,4.37,10.31,8.1,14.63,11.18C320.23,319.87,336.19,328.84,352.41,335.6z"/>
		</g>
		<g>
			<path class="st9" d="M384,140.42l-11.6-9.06c14.38-18.42,21.16-40.66,20.15-66.08c-0.77-19.34-6.01-33.36-6.06-33.5l13.75-5.25
				c0.25,0.64,6.04,16.01,6.99,37.62C408.49,92.96,400.46,119.33,384,140.42z"/>
			<path class="st8" d="M477.5,222.75l-11.6-9.06c17.73-22.72,45.1-36.42,79.13-39.61c25.27-2.37,45.22,1.8,46.06,1.98l-3.08,14.39
				l1.54-7.2l-1.53,7.2c-0.19-0.04-18.92-3.92-42.02-1.68C515.87,191.68,492.83,203.12,477.5,222.75z"/>
			<path class="st10" d="M413.76,121.78c4.21-9.45,10.89-12.61,15.76-14.91c4.13-1.95,6.62-3.13,8.61-7.59s1.2-7.1-0.11-11.48
				c-1.55-5.16-3.67-12.24,0.54-21.69c4.21-9.45,10.89-12.61,15.76-14.91c4.13-1.95,6.62-3.13,8.61-7.59
				c1.99-4.47,1.2-7.11-0.11-11.48c-1.55-5.17-3.67-12.24,0.54-21.69l13.44,5.99c-1.99,4.47-1.2,7.11,0.11,11.48
				c1.55,5.17,3.67,12.24-0.54,21.69c-4.21,9.45-10.89,12.61-15.76,14.91c-4.13,1.95-6.62,3.13-8.61,7.59
				c-1.99,4.46-1.2,7.1,0.11,11.47c1.55,5.17,3.67,12.24-0.54,21.69c-4.21,9.45-10.89,12.61-15.76,14.91
				c-4.13,1.95-6.62,3.13-8.61,7.59L413.76,121.78z"/>
			<path class="st11" d="M478.8,153.51l-8.73-11.85c8.59-6.32,16.19-5.74,21.74-5.32c4.81,0.37,7.71,0.59,11.9-2.5
				c4.19-3.08,4.84-5.92,5.92-10.62c1.25-5.43,2.95-12.86,11.54-19.18c8.59-6.32,16.19-5.75,21.75-5.32
				c4.81,0.36,7.71,0.59,11.91-2.5c4.19-3.09,4.84-5.92,5.92-10.63c1.25-5.43,2.95-12.86,11.54-19.18l8.73,11.85
				c-4.19,3.09-4.84,5.92-5.92,10.63c-1.25,5.43-2.95,12.86-11.54,19.18c-8.59,6.32-16.19,5.74-21.75,5.32
				c-4.81-0.37-7.71-0.59-11.91,2.5c-4.19,3.08-4.84,5.92-5.92,10.62c-1.25,5.43-2.95,12.86-11.54,19.18
				c-8.59,6.32-16.19,5.74-21.74,5.32C485.89,150.64,482.99,150.42,478.8,153.51z"/>
			<circle class="st11" cx="570.6" cy="135.78" r="7.36"/>
			<circle class="st9" cx="548.56" cy="225" r="7.36"/>
			<circle class="st8" cx="608.06" cy="154.76" r="7.36"/>
			<circle class="st10" cx="536.26" cy="61.37" r="7.36"/>
			<circle class="st8" cx="422.23" cy="20.89" r="7.36"/>
			<circle class="st5" cx="480.6" cy="77.66" r="7.36"/>
			<circle class="st10" cx="436.47" cy="174.85" r="7.36"/>
			<circle class="st11" cx="345.41" cy="65.48" r="7.36"/>
		</g>
	</g>
	<g>
		<path class="st15" d="M470.65,361.69c-9.65-9.65-20.83-17.13-33.56-22.47c-12.73-5.33-26.47-8-41.25-8h-55.41
			c-7.59-0.2-13.03,0.82-16.31,3.08c-3.29,2.26-5.34,5.19-6.16,8.77c-0.82,3.59-1.23,7.34-1.23,11.24v168.39
			c0,4.11,0.51,7.96,1.54,11.54c1.02,3.59,3.13,6.52,6.31,8.77c3.18,2.25,8.36,3.39,15.55,3.39h54.8c15.18,0,29.19-2.77,42.02-8.31
			c12.82-5.54,24.06-13.18,33.71-22.93c9.64-9.75,17.13-21.24,22.47-34.48c5.33-13.24,8-27.55,8-42.94c0-15.19-2.67-29.25-8-42.17
			C487.79,382.62,480.3,371.34,470.65,361.69z M446.64,470.05c-5.13,9.03-12.11,16.16-20.93,21.39c-8.83,5.23-18.78,7.85-29.86,7.85
			h-32.32V378h32.02c11.28,0,21.34,2.62,30.17,7.85c8.82,5.23,15.8,12.47,20.93,21.7c5.13,9.23,7.7,19.7,7.7,31.4
			C454.34,450.65,451.77,461.02,446.64,470.05z"/>
		<path class="st3" d="M470.65,361.69c-9.65-9.65-20.83-17.13-33.56-22.47c-12.73-5.33-26.47-8-41.25-8h-55.41
			c-7.59-0.2-13.03,0.82-16.31,3.08c-3.29,2.26-5.34,5.19-6.16,8.77c-0.82,3.59-1.23,7.34-1.23,11.24v168.39
			c0,4.11,0.51,7.96,1.54,11.54c1.02,3.59,3.13,6.52,6.31,8.77c3.18,2.25,8.36,3.39,15.55,3.39h54.8c15.18,0,29.19-2.77,42.02-8.31
			c12.82-5.54,24.06-13.18,33.71-22.93c9.64-9.75,17.13-21.24,22.47-34.48c5.33-13.24,8-27.55,8-42.94c0-15.19-2.67-29.25-8-42.17
			C487.79,382.62,480.3,371.34,470.65,361.69z M446.64,470.05c-5.13,9.03-12.11,16.16-20.93,21.39c-8.83,5.23-18.78,7.85-29.86,7.85
			h-32.32V378h32.02c11.28,0,21.34,2.62,30.17,7.85c8.82,5.23,15.8,12.47,20.93,21.7c5.13,9.23,7.7,19.7,7.7,31.4
			C454.34,450.65,451.77,461.02,446.64,470.05z"/>
	</g>
	<g>
		<path class="st15" d="M252.12,450.28c3.28,2.15,8.62,3.23,16.01,3.23c7.8,0,13.29-1.08,16.47-3.23c3.18-2.15,5.18-5.03,6-8.62
			c0.82-3.59,1.23-7.34,1.23-11.24V262.03c0-4.31-0.36-8.2-1.08-11.7c-0.72-3.49-2.67-6.36-5.85-8.62
			c-3.18-2.25-8.67-3.39-16.47-3.39c-7.59,0-13.03,1.13-16.31,3.39c-3.29,2.26-5.29,5.13-6,8.62c-0.72,3.49-1.08,7.29-1.08,11.39
			v168.39c0,3.9,0.36,7.7,1.08,11.39C246.83,445.2,248.83,448.12,252.12,450.28z"/>
		<path class="st3" d="M252.12,450.28c3.28,2.15,8.62,3.23,16.01,3.23c7.8,0,13.29-1.08,16.47-3.23c3.18-2.15,5.18-5.03,6-8.62
			c0.82-3.59,1.23-7.34,1.23-11.24V262.03c0-4.31-0.36-8.2-1.08-11.7c-0.72-3.49-2.67-6.36-5.85-8.62
			c-3.18-2.25-8.67-3.39-16.47-3.39c-7.59,0-13.03,1.13-16.31,3.39c-3.29,2.26-5.29,5.13-6,8.62c-0.72,3.49-1.08,7.29-1.08,11.39
			v168.39c0,3.9,0.36,7.7,1.08,11.39C246.83,445.2,248.83,448.12,252.12,450.28z"/>
	</g>
	<polygon class="st12" points="415.78,392.13 377.36,388.16 372.18,399.44 372.18,487.26 377.36,487.26 423.71,483.9 442,458.6 
		436.51,411.94 	"/>
</g>
</svg>
